C:\Users\jackb\Documents\projects\Masters\adult_control\InputData/emg/ng10203_crop.c3d.mot
nRows=29
nColumns=13

name C:\Users\jackb\Documents\projects\Masters\adult_control\InputData/emg/ng10203_crop.c3d.mot
datacolumns 13
datarows 29
range 1.2200000000 1.2340000000
endheader
time	soleus_r	rect_fem_r	lat_gas_r	med_gas_r	vas_lat_r	vas_med_r	bifemlh_r	semimem_r	tib_ant_r	per_brev_r	ext_dig_r	ext_hal_r
        1.2200000000	        0.0304333473	        0.0096631396	        0.0200591948	        0.0129625824	       -0.0001183533	        0.0039631541	        0.0174946388	        0.0188181691	        0.0167935158	        0.0554195483	        0.0135276770	        0.0342994953	
        1.2205000000	        0.0304333543	        0.0096631426	        0.0200591999	        0.0129625843	       -0.0001183531	        0.0039631544	        0.0174946395	        0.0188181701	        0.0167935301	        0.0554195581	        0.0135276949	        0.0342995269	
        1.2210000000	        0.0304333889	        0.0096631568	        0.0200592257	        0.0129625952	       -0.0001183520	        0.0039631557	        0.0174946439	        0.0188181742	        0.0167935941	        0.0554196048	        0.0135277899	        0.0342996930	
        1.2215000000	        0.0304335028	        0.0096632007	        0.0200593123	        0.0129626352	       -0.0001183479	        0.0039631600	        0.0174946596	        0.0188181865	        0.0167938359	        0.0554197513	        0.0135281222	        0.0343002682	
        1.2220000000	        0.0304337862	        0.0096633025	        0.0200595312	        0.0129627447	       -0.0001183362	        0.0039631703	        0.0174947022	        0.0188182150	        0.0167945948	        0.0554200967	        0.0135289973	        0.0343017733	
        1.2225000000	        0.0304343630	        0.0096634994	        0.0200599825	        0.0129629860	       -0.0001183079	        0.0039631913	        0.0174947949	        0.0188182721	        0.0167965284	        0.0554207629	        0.0135308767	        0.0343050002	
        1.2230000000	        0.0304353768	        0.0096638369	        0.0200607839	        0.0129634393	       -0.0001182473	        0.0039632295	        0.0174949664	        0.0188183769	        0.0168006160	        0.0554218782	        0.0135343541	        0.0343109840	
        1.2235000000	        0.0304369761	        0.0096643688	        0.0200620595	        0.0129641950	       -0.0001181300	        0.0039632940	        0.0174952480	        0.0188185544	        0.0168080486	        0.0554235691	        0.0135401120	        0.0343209462	
        1.2240000000	        0.0304393064	        0.0096651543	        0.0200639324	        0.0129653464	       -0.0001179234	        0.0039633979	        0.0174956717	        0.0188188365	        0.0168201025	        0.0554259587	        0.0135488819	        0.0343362281	
        1.2245000000	        0.0304425143	        0.0096662575	        0.0200665200	        0.0129669843	       -0.0001175878	        0.0039635592	        0.0174962708	        0.0188192669	        0.0168381014	        0.0554291653	        0.0135614220	        0.0343582244	
        1.2250000000	        0.0304467558	        0.0096677554	        0.0200699335	        0.0129691971	       -0.0001170769	        0.0039638008	        0.0174970808	        0.0188199060	        0.0168634819	        0.0554333017	        0.0135785186	        0.0343883238	
        1.2255000000	        0.0304522054	        0.0096697581	        0.0200742823	        0.0129720766	       -0.0001163362	        0.0039641498	        0.0174981407	        0.0188208325	        0.0168978963	        0.0554384778	        0.0136010128	        0.0344278765	
        1.2260000000	        0.0304590621	        0.0096724348	        0.0200796826	        0.0129757276	       -0.0001153035	        0.0039646357	        0.0174994951	        0.0188221402	        0.0169432851	        0.0554448092	        0.0136298378	        0.0344782209	
        1.2265000000	        0.0304675550	        0.0096760317	        0.0200862635	        0.0129802744	       -0.0001139084	        0.0039652897	        0.0175011986	        0.0188239323	        0.0170018728	        0.0554524269	        0.0136660414	        0.0345407592	
        1.2270000000	        0.0304779458	        0.0096808765	        0.0200941670	        0.0129858582	       -0.0001120681	        0.0039661429	        0.0175033177	        0.0188263166	        0.0170760626	        0.0554614858	        0.0137107645	        0.0346170270	
        1.2275000000	        0.0304905286	        0.0096873744	        0.0201035424	        0.0129926291	       -0.0001096836	        0.0039672259	        0.0175059289	        0.0188293987	        0.0171682757	        0.0554721683	        0.0137651808	        0.0347087247	
        1.2280000000	        0.0305056257	        0.0096959987	        0.0201145393	        0.0130007355	       -0.0001066412	        0.0039685707	        0.0175091147	        0.0188332768	        0.0172808138	        0.0554846836	        0.0138304326	        0.0348177196	
        1.2285000000	        0.0305235780	        0.0097072748	        0.0201273031	        0.0130103158	       -0.0001028203	        0.0039702122	        0.0175129610	        0.0188380399	        0.0174158003	        0.0554992641	        0.0139075970	        0.0349460328	
        1.2290000000	        0.0305447335	        0.0097217579	        0.0201419722	        0.0130214953	       -0.0000981021	        0.0039721882	        0.0175175569	        0.0188437682	        0.0175752226	        0.0555161621	        0.0139976957	        0.0350958183	
        1.2295000000	        0.0305694323	        0.0097400045	        0.0201586753	        0.0130343846	       -0.0000923737	        0.0039745370	        0.0175229959	        0.0188505359	        0.0177610787	        0.0555356464	        0.0141017218	        0.0352693345	
        1.2300000000	        0.0305979929	        0.0097625472	        0.0201775304	        0.0130490809	       -0.0000855274	        0.0039772951	        0.0175293767	        0.0188584167	        0.0179755718	        0.0555579988	        0.0142206529	        0.0354689078	
        1.2305000000	        0.0306307036	        0.0097898835	        0.0201986452	        0.0130656687	       -0.0000774611	        0.0039804953	        0.0175368006	        0.0188674897	        0.0182212275	        0.0555835076	        0.0143555022	        0.0356968884	
        1.2310000000	        0.0306678198	        0.0098224857	        0.0202221200	        0.0130842231	       -0.0000680792	        0.0039841673	        0.0175453684	        0.0188778433	        0.0185008226	        0.0556124580	        0.0145074544	        0.0359555909	
        1.2315000000	        0.0307095686	        0.0098608244	        0.0202480527	        0.0131048123	       -0.0000572943	        0.0039883371	        0.0175551789	        0.0188895766	        0.0188171696	        0.0556451200	        0.0146779975	        0.0362472171	
        1.2320000000	        0.0307561565	        0.0099053917	        0.0202765443	        0.0131275003	       -0.0000450257	        0.0039930278	        0.0175663311	        0.0189027982	        0.0191729509	        0.0556817399	        0.0148689320	        0.0365737779	
        1.2325000000	        0.0308077830	        0.0099567211	        0.0203077014	        0.0131523460	       -0.0000311986	        0.0039982599	        0.0175789233	        0.0189176223	        0.0195707040	        0.0557225398	        0.0150822372	        0.0369370598	
        1.2330000000	        0.0308646585	        0.0100153996	        0.0203416365	        0.0131794004	       -0.0000157438	        0.0040040518	        0.0175930500	        0.0189341641	        0.0200128516	        0.0557677210	        0.0153198795	        0.0373386467	
        1.2335000000	        0.0309270224	        0.0100820750	        0.0203784674	        0.0132087043	        0.0000013999	        0.0040104207	        0.0176088002	        0.0189525351	        0.0205016782	        0.0558174665	        0.0155836695	        0.0377799538	
        1.2340000000	        0.0309951566	        0.0101574567	        0.0204183170	        0.0132402882	        0.0000202847	        0.0040173838	        0.0176262603	        0.0189728391	        0.0210392865	        0.0558719416	        0.0158752303	        0.0382622379	
